<svg width="800" height="800" viewBox="0 0 800 800" fill="none" xmlns="http://www.w3.org/2000/svg">
<path d="M351 356.581C347.667 345.983 344.667 335.726 341.333 325.128C338 314.53 335 304.615 332.333 294.701C329.667 285.128 327.333 276.239 325 268.034H324.333C321.333 282.735 317.667 297.436 313 312.137C308 328.547 303 345.641 297.667 362.735C293 380.171 288 396.239 283 410.598H367.667C365.667 403.385 363 394.872 360 385.949C357 376.752 354 366.838 351 356.581ZM658.333 0H141.667C63.3333 0 0 64.9573 0 145.299V654.701C0 735.043 63.3333 800 141.667 800H658.333C736.667 800 800 735.043 800 654.701V145.299C800 64.9573 736.667 0 658.333 0ZM490 565.128H420.3C418 565.47 415.667 563.761 415 561.367L387.667 480H263.667L238.333 560.342C237.667 563.419 235 565.47 232 565.162H169.333C165.667 565.162 164.667 563.077 165.667 559.008L273 242.051C274 238.632 275 234.872 276.333 230.769C277.667 223.59 278.333 216.068 278.333 208.547C278 206.838 279.333 205.128 281 204.786H367.333C370 204.786 371.333 205.812 371.667 207.521L493.333 559.658C494.333 563.385 493.333 565.128 490 565.128ZM603.333 560C603.333 563.761 602.033 565.47 599.033 565.47H533.667C530.333 565.47 528.667 563.385 528.667 560V296.752C528.667 293.333 530.033 291.966 533.033 291.966H599.033C602.033 291.966 603.333 293.675 603.333 296.752V560ZM596.367 251.282C588.667 259.487 577.333 263.932 566 263.248C555 263.59 544.333 259.145 536.3 251.282C528.633 242.735 524.633 231.453 524.967 219.829C524.633 208.205 528.967 197.265 536.933 189.402C545 181.538 555.667 177.436 566.667 177.436C579.7 177.436 589.633 181.538 597 189.402C604.333 197.607 608.333 208.547 608 219.829C608.333 231.453 604.333 242.735 596.367 251.282Z" fill="#FF9A00"/>
</svg>
