<svg width="800" height="800" viewBox="0 0 800 800" fill="none" xmlns="http://www.w3.org/2000/svg">
<path fill-rule="evenodd" clip-rule="evenodd" d="M800 605.128C800 712.755 712.755 800 605.128 800H194.872C87.2472 800 0 712.755 0 605.128V194.872C0 87.2472 87.2472 0 194.872 0H605.128C712.755 0 800 87.2472 800 194.872V605.128ZM194.872 594.872C177.879 594.872 164.103 581.095 164.103 564.103V235.897C164.103 227.737 167.344 219.911 173.115 214.14C178.885 208.37 186.711 205.128 194.872 205.128H276.923C339.233 205.128 389.744 255.64 389.744 317.949C389.744 380.258 339.233 430.769 276.923 430.769H225.641V564.103C225.641 581.095 211.865 594.872 194.872 594.872ZM225.641 369.231H276.923C305.246 369.231 328.205 346.273 328.205 317.949C328.205 289.626 305.246 266.667 276.923 266.667H225.641V369.231ZM577.6 372.734C585.202 387.934 603.684 394.096 618.88 386.494C634.08 378.896 640.242 360.414 632.644 345.214C614.86 309.647 578.507 287.18 538.741 287.18H523.069C472.09 287.18 430.761 328.509 430.761 379.487C430.761 430.466 472.09 471.795 523.069 471.795H543.582C560.574 471.795 574.351 485.571 574.351 502.564C574.351 519.557 560.574 533.333 543.582 533.333H527.914C511.454 533.333 496.41 524.037 489.054 509.317C481.452 494.117 462.97 487.955 447.77 495.557C432.57 503.155 426.412 521.637 434.01 536.837C451.795 572.406 488.148 594.872 527.914 594.872H543.582C594.564 594.872 635.889 553.543 635.889 502.564C635.889 451.586 594.564 410.256 543.582 410.256H523.069C506.076 410.256 492.3 396.48 492.3 379.487C492.3 362.494 506.076 348.718 523.069 348.718H538.741C555.196 348.718 570.24 358.014 577.6 372.734Z" fill="#31A8FF"/>
</svg>
