<svg width="800" height="800" viewBox="0 0 800 800" fill="none" xmlns="http://www.w3.org/2000/svg">
<path d="M367.211 67.6051V373.766C367.211 377.388 370.145 380.324 373.769 380.324H793.339C796.961 380.324 799.897 377.389 799.897 373.766V6.55663C799.897 4.65195 799.07 2.84257 797.631 1.59726C796.194 0.351946 794.287 -0.204304 792.395 0.067571L372.823 61.116C369.6 61.5863 367.211 64.3504 367.211 67.6051Z" fill="#00A4EF"/>
<path d="M321.316 734.287C322.892 734.287 324.427 733.72 325.628 732.672C327.055 731.426 327.873 729.623 327.873 727.729V426.228C327.873 422.606 324.939 419.67 321.316 419.67H6.8C5.06094 419.67 3.39219 420.362 2.1625 421.59C0.932812 422.82 0.242188 424.489 0.242188 426.228L0.257813 684.628C0.257813 687.904 2.67813 690.681 5.92344 691.128L320.423 734.234C320.72 734.267 321.019 734.287 321.316 734.287Z" fill="#00A4EF"/>
<path d="M6.84375 380.323H321.314C324.936 380.323 327.872 377.389 327.872 373.765V75.2262C327.872 73.3324 327.053 71.5324 325.63 70.2871C324.205 69.0418 322.322 68.4699 320.434 68.7293L5.67656 111.473C2.42031 111.917 -0.00312198 114.695 3.01878e-06 117.978L0.285941 373.77C0.290628 377.39 3.22657 380.323 6.84375 380.323Z" fill="#00A4EF"/>
<path d="M793.339 799.998C794.911 799.998 796.439 799.434 797.641 798.39C799.073 797.145 799.897 795.342 799.897 793.44L800.002 426.228C800.002 424.492 799.312 422.82 798.081 421.59C796.852 420.361 795.183 419.67 793.444 419.67H373.769C370.147 419.67 367.211 422.604 367.211 426.228V734.414C367.211 737.682 369.619 740.451 372.853 740.907L792.423 799.936C792.731 799.978 793.034 799.998 793.339 799.998Z" fill="#00A4EF"/>
</svg>
