<svg width="465" height="397" viewBox="0 0 465 397" fill="none" xmlns="http://www.w3.org/2000/svg">
<g clip-path="url(#clip0_1025_2093)">
<path d="M205.59 386.998L259.485 387.011L259.525 279.91L205.621 279.894L205.59 386.998Z" fill="#3C2C5B" stroke="#333333" stroke-width="2" stroke-linecap="round" stroke-linejoin="round"/>
<path d="M307.946 377.989L156.431 378.051C146.542 377.96 138.616 386.003 138.588 395.702L325.398 395.766C325.779 385.984 317.61 378.122 307.946 377.989Z" fill="#3C2C5B" stroke="#333333" stroke-width="2" stroke-linecap="round" stroke-linejoin="round"/>
<path d="M463.468 288.308L1.13044 288.144L1.22722 242.395L12.7014 224.866L453.6 225.45L463.596 242.464L463.468 288.308Z" fill="#3C2C5B" stroke="#333333" stroke-width="2" stroke-linecap="round" stroke-linejoin="round"/>
<path d="M387.43 242.459L1.22816 242.394L1.30533 0.826332L463.652 0.993425L463.597 242.463L450.487 242.564" fill="#6B9FFF"/>
<path d="M387.43 242.459L1.22816 242.394L1.30533 0.826332L463.652 0.993425L463.597 242.463L450.487 242.564" stroke="#333333" stroke-width="2" stroke-linecap="round" stroke-linejoin="round"/>
<path d="M404.378 242.562L436.602 242.423" stroke="#333333" stroke-width="2" stroke-linecap="round" stroke-linejoin="round"/>
<path d="M172.678 83.2701L204.723 114.723" stroke="#333333" stroke-width="2" stroke-linecap="round" stroke-linejoin="round"/>
<path d="M204.426 82.9751L172.974 115.02" stroke="#333333" stroke-width="2" stroke-linecap="round" stroke-linejoin="round"/>
<path d="M253.76 82.778L285.805 114.23" stroke="#333333" stroke-width="2" stroke-linecap="round" stroke-linejoin="round"/>
<path d="M285.508 82.4829L254.056 114.527" stroke="#333333" stroke-width="2" stroke-linecap="round" stroke-linejoin="round"/>
<path d="M173.284 178.411C173.179 166.878 182.461 157.597 193.804 157.43L265.184 156.909C276.726 156.808 286.007 166.089 286.175 177.432" stroke="#333333" stroke-width="2" stroke-linecap="round" stroke-linejoin="round"/>
</g>
<defs>
<clipPath id="clip0_1025_2093">
<rect width="465" height="397" fill="white"/>
</clipPath>
</defs>
</svg>
