<svg width="82" height="32" viewBox="0 0 82 32" fill="none" xmlns="http://www.w3.org/2000/svg">
<path d="M4.37 24.84V31.87H5.38V24.84H7.76V24H2V24.84H4.37ZM9.17 24V31.87H10.17V28.16H13.83V31.87H14.84V24H13.83V27.3H10.17V24H9.17ZM20.34 28.67H17.98L18.35 27.47C18.5 27.03 18.63 26.59 18.76 26.15C18.89 25.72 19.01 25.27 19.13 24.81H19.18C19.31 25.27 19.44 25.72 19.56 26.15C19.69 26.59 19.83 27.03 19.97 27.47L20.34 28.67ZM20.6 29.47L21.34 31.87H22.41L19.74 24H18.62L15.95 31.87H16.97L17.73 29.47H20.6ZM23.52 24V31.87H24.47V27.75C24.47 27.34 24.46 26.92 24.43 26.51C24.4 26.1 24.37 25.69 24.34 25.29H24.39L25.24 26.91L28.1 31.87H29.13V24H28.18V28.07C28.18 28.48 28.19 28.9 28.22 29.33C28.25 29.76 28.28 30.17 28.3 30.57H28.25L27.4 28.94L24.56 24H23.52ZM37.06 28.67H34.7L35.07 27.47C35.21 27.03 35.35 26.59 35.48 26.15C35.6 25.72 35.73 25.27 35.85 24.81H35.9C36.02 25.27 36.15 25.72 36.28 26.15C36.41 26.59 36.54 27.03 36.69 27.47L37.06 28.67ZM37.31 29.47L38.06 31.87H39.12L36.46 24H35.33L32.67 31.87H33.69L34.44 29.47H37.31ZM42.66 24V31.87H43.66V28.34H46.66V27.5H43.66V24.84H47.2V24H42.66ZM49.59 27.73V24.8H50.91C51.52 24.8 52 24.91 52.32 25.11C52.65 25.32 52.82 25.69 52.82 26.21C52.82 26.72 52.65 27.1 52.32 27.35C52 27.6 51.52 27.73 50.91 27.73H49.59ZM52.91 31.87H54.04L52.05 28.44C52.58 28.3 53.01 28.05 53.33 27.68C53.65 27.31 53.81 26.82 53.81 26.21C53.81 25.8 53.74 25.45 53.61 25.17C53.47 24.89 53.28 24.67 53.04 24.49C52.79 24.31 52.5 24.19 52.16 24.11C51.82 24.04 51.45 24 51.05 24H48.59V31.87H49.59V28.55H51.02L52.91 31.87ZM55.56 24V31.87H56.56V24H55.56ZM58.72 24V31.87H63.38V31.02H59.72V28.16H62.7V27.31H59.72V24.84H63.26V24H58.72ZM65.04 24V31.87H65.99V27.75C65.99 27.34 65.98 26.92 65.95 26.51C65.92 26.1 65.89 25.69 65.86 25.29H65.91L66.76 26.91L69.62 31.87H70.65V24H69.7V28.07C69.7 28.48 69.71 28.9 69.74 29.33C69.77 29.76 69.8 30.17 69.82 30.57H69.77L68.92 28.94L66.08 24H65.04ZM72.81 24V31.87H74.82C75.42 31.87 75.94 31.78 76.4 31.6C76.85 31.42 77.24 31.16 77.55 30.82C77.86 30.48 78.1 30.06 78.26 29.57C78.42 29.08 78.5 28.52 78.5 27.9C78.5 26.64 78.18 25.68 77.55 25.01C76.92 24.33 75.99 24 74.78 24H72.81ZM74.7 31.05H73.8V24.81H74.7C75.62 24.81 76.31 25.08 76.77 25.61C77.23 26.13 77.46 26.9 77.46 27.9C77.46 28.9 77.23 29.67 76.77 30.23C76.31 30.78 75.62 31.05 74.7 31.05Z" fill="#333333"/>
<g clip-path="url(#clip0_1036_2463)">
<path d="M2.41302 21.1132C2.0897 21.1133 1.76965 21.0485 1.47187 20.9226C1.17409 20.7966 0.904665 20.6121 0.679589 20.38C0.454513 20.1479 0.27838 19.8729 0.16165 19.5714C0.0449209 19.2699 -0.0100238 18.948 7.99264e-05 18.6248V2.41294C7.99264e-05 1.77298 0.254299 1.15925 0.706812 0.706732C1.15933 0.254219 1.77306 0 2.41302 0C3.05297 0 3.6667 0.254219 4.11922 0.706732C4.57173 1.15925 4.82595 1.77298 4.82595 2.41294V18.6248C4.83605 18.948 4.78111 19.2699 4.66438 19.5714C4.54765 19.8729 4.37152 20.1479 4.14644 20.38C3.92136 20.6121 3.65194 20.7966 3.35416 20.9226C3.05638 21.0485 2.73633 21.1133 2.41302 21.1132Z" fill="#00ADA8"/>
<path d="M16.0309 21.1132C15.7038 21.1195 15.3789 21.0592 15.0758 20.936C14.7727 20.8128 14.4979 20.6292 14.2679 20.3965C14.038 20.1637 13.8578 19.8866 13.7383 19.5821C13.6188 19.2775 13.5625 18.9518 13.5728 18.6248V2.41294C13.5728 1.77299 13.827 1.15925 14.2795 0.706732C14.732 0.254219 15.3457 0 15.9857 0C16.6256 0 17.2394 0.254219 17.6919 0.706732C18.1444 1.15925 18.3986 1.77299 18.3986 2.41294V18.6248C18.4087 18.9442 18.3552 19.2624 18.2412 19.561C18.1273 19.8595 17.9552 20.1325 17.7349 20.3639C17.5147 20.5954 17.2506 20.7809 16.9581 20.9095C16.6656 21.0381 16.3504 21.1073 16.0309 21.1132Z" fill="#81D8D0"/>
<path d="M9.12393 12.6679C8.77455 12.6678 8.4293 12.5923 8.11178 12.4466C7.79425 12.3008 7.51192 12.0883 7.28406 11.8234L0.588167 4.02661C0.194017 3.538 0.00581022 2.91501 0.0635001 2.28989C0.12119 1.66478 0.420234 1.08676 0.897151 0.678531C1.37407 0.270306 1.99131 0.064021 2.61784 0.103465C3.24437 0.14291 3.83086 0.424979 4.25281 0.889794L10.9487 8.68659C11.248 9.03654 11.441 9.46483 11.5047 9.9209C11.5685 10.377 11.5004 10.8418 11.3086 11.2604C11.1167 11.679 10.809 12.034 10.4219 12.2834C10.0348 12.5328 9.58442 12.6662 9.12393 12.6679Z" fill="#70B0BE"/>
<path d="M9.04849 12.6679C8.58722 12.6604 8.13791 12.52 7.75445 12.2635C7.37099 12.0071 7.06965 11.6454 6.88658 11.222C6.70351 10.7985 6.64648 10.3312 6.72233 9.87618C6.79817 9.42113 7.00368 8.99762 7.31419 8.65644L14.2212 0.874723C14.6472 0.39676 15.2456 0.107588 15.8847 0.070821C16.5239 0.0340543 17.1515 0.252705 17.6295 0.678672C18.1075 1.10464 18.3966 1.70303 18.4334 2.3422C18.4702 2.98138 18.2515 3.60898 17.8255 4.08694L10.9185 11.8536C10.6872 12.1201 10.3992 12.3315 10.0757 12.4725C9.75214 12.6134 9.40118 12.6801 9.04849 12.6679Z" fill="#CCCCFF"/>
</g>
<g clip-path="url(#clip1_1036_2463)">
<g clip-path="url(#clip2_1036_2463)">
<path d="M31.4524 21.1132C28.6526 21.1132 25.9675 20.001 23.9878 18.0212C22.008 16.0415 20.8958 13.3564 20.8958 10.5566C20.8958 9.91664 21.15 9.3029 21.6025 8.85039C22.0551 8.39788 22.6688 8.14366 23.3087 8.14366C23.9487 8.14366 24.5624 8.39788 25.015 8.85039C25.4675 9.3029 25.7217 9.91664 25.7217 10.5566C25.6819 11.3289 25.7997 12.1011 26.0678 12.8265C26.336 13.5518 26.7489 14.2149 27.2815 14.7756C27.814 15.3363 28.4551 15.7828 29.1656 16.0878C29.8762 16.3929 30.6414 16.5503 31.4147 16.5503C32.188 16.5503 32.9532 16.3929 33.6638 16.0878C34.3743 15.7828 35.0154 15.3363 35.5479 14.7756C36.0805 14.2149 36.4934 13.5518 36.7616 12.8265C37.0297 12.1011 37.1475 11.3289 37.1077 10.5566C37.1077 9.90664 37.3659 9.28332 37.8255 8.82373C38.2851 8.36415 38.9084 8.10596 39.5584 8.10596C40.2083 8.10596 40.8316 8.36415 41.2912 8.82373C41.7508 9.28332 42.009 9.90664 42.009 10.5566C42.009 13.3564 40.8968 16.0415 38.917 18.0212C36.9373 20.001 34.2522 21.1132 31.4524 21.1132Z" fill="#70B0BE"/>
<path d="M39.5207 12.9243C38.8873 12.9283 38.2781 12.6816 37.826 12.238C37.3739 11.7944 37.1157 11.1899 37.1077 10.5566C37.0326 9.09738 36.4 7.72273 35.3406 6.71646C34.2812 5.71019 32.8758 5.14914 31.4147 5.14914C29.9536 5.14914 28.5482 5.71019 27.4888 6.71646C26.4294 7.72273 25.7968 9.09738 25.7217 10.5566C25.7217 11.1965 25.4675 11.8103 25.015 12.2628C24.5624 12.7153 23.9487 12.9695 23.3087 12.9695C22.6688 12.9695 22.0551 12.7153 21.6025 12.2628C21.15 11.8103 20.8958 11.1965 20.8958 10.5566C20.8958 7.75681 22.008 5.0717 23.9878 3.09195C25.9675 1.11221 28.6526 0 31.4524 0C34.2522 0 36.9373 1.11221 38.917 3.09195C40.8968 5.0717 42.009 7.75681 42.009 10.5566C42.0032 10.8761 41.9339 11.1912 41.8053 11.4837C41.6767 11.7763 41.4913 12.0403 41.2598 12.2606C41.0283 12.4809 40.7553 12.653 40.4568 12.7669C40.1582 12.8808 39.84 12.9343 39.5207 12.9243Z" fill="#CCCCFF"/>
</g>
</g>
<g clip-path="url(#clip3_1036_2463)">
<g clip-path="url(#clip4_1036_2463)">
<path d="M60.9494 20.9623C60.398 20.953 59.8661 20.7562 59.4414 20.4044L50.9659 13.3164C50.476 12.9044 50.1697 12.3147 50.1146 11.6769C50.0594 11.0391 50.2599 10.4056 50.6718 9.91563C51.0838 9.42567 51.6735 9.11943 52.3113 9.06428C52.9491 9.00913 53.5826 9.20959 54.0726 9.62155L62.5028 16.7096C62.8763 17.0262 63.1445 17.449 63.272 17.9218C63.3995 18.3946 63.3801 18.8949 63.2165 19.3564C63.0528 19.8179 62.7526 20.2187 62.3558 20.5056C61.959 20.7924 61.4842 20.9517 60.9947 20.9623H60.9494Z" fill="#48D1CC"/>
<path d="M48.5228 21.1132C48.1995 21.1153 47.8791 21.0524 47.5806 20.9283C47.2821 20.8042 47.0116 20.6214 46.7851 20.3907C46.5586 20.16 46.3808 19.8861 46.2622 19.5854C46.1437 19.2846 46.0867 18.9631 46.0948 18.6399V2.42801C46.0948 1.78806 46.349 1.17432 46.8015 0.721808C47.2541 0.269295 47.8678 0.0150757 48.5077 0.0150757C49.1477 0.0150757 49.7614 0.269295 50.2139 0.721808C50.6665 1.17432 50.9207 1.78806 50.9207 2.42801V18.6399C50.9287 18.9606 50.8727 19.2796 50.756 19.5783C50.6393 19.8771 50.4642 20.1496 50.2409 20.3799C50.0176 20.6102 49.7507 20.7936 49.4557 20.9195C49.1607 21.0454 48.8436 21.1113 48.5228 21.1132Z" fill="#CCCCFF"/>
<path d="M58.9588 9.35012C58.3188 9.35012 57.7051 9.0959 57.2526 8.64339C56.8001 8.19088 56.5458 7.57714 56.5458 6.93719C56.5418 6.41785 56.3479 5.91794 56.0006 5.53177C55.6533 5.14559 55.1767 4.89987 54.6607 4.84095H48.5078C47.8658 4.84095 47.2501 4.58594 46.7962 4.13201C46.3423 3.67808 46.0873 3.06243 46.0873 2.42048C46.0873 1.77853 46.3423 1.16287 46.7962 0.708941C47.2501 0.255014 47.8658 0 48.5078 0L54.9925 0C56.7301 0.150674 58.3484 0.946198 59.529 2.23004C60.7096 3.51388 61.3669 5.19306 61.3717 6.93719C61.3717 7.57714 61.1175 8.19088 60.665 8.64339C60.2125 9.0959 59.5987 9.35012 58.9588 9.35012Z" fill="#70B0BE"/>
<path d="M48.5078 13.8895C47.8658 13.8895 47.2501 13.6345 46.7962 13.1806C46.3423 12.7266 46.0873 12.111 46.0873 11.469C46.0873 10.8271 46.3423 10.2114 46.7962 9.75749C47.2501 9.30356 47.8658 9.04854 48.5078 9.04854H54.6457C55.167 8.99277 55.6493 8.74639 56 8.3567C56.3507 7.96701 56.5451 7.4615 56.5458 6.93723C56.5458 6.62036 56.6083 6.30659 56.7295 6.01384C56.8508 5.72109 57.0285 5.45509 57.2526 5.23102C57.4766 5.00696 57.7426 4.82923 58.0354 4.70797C58.3281 4.5867 58.6419 4.52429 58.9588 4.52429C59.2757 4.52429 59.5894 4.5867 59.8822 4.70797C60.1749 4.82923 60.4409 5.00696 60.665 5.23102C60.889 5.45509 61.0668 5.72109 61.188 6.01384C61.3093 6.30659 61.3717 6.62036 61.3717 6.93723C61.3657 8.69094 60.6999 10.3782 59.5068 11.6635C58.3137 12.9488 56.6806 13.7381 54.9322 13.8744L48.5078 13.8895Z" fill="#00ADA8"/>
</g>
</g>
<g clip-path="url(#clip5_1036_2463)">
<g clip-path="url(#clip6_1036_2463)">
<path d="M68.5514 21.1132C68.2281 21.1133 67.908 21.0485 67.6103 20.9226C67.3125 20.7966 67.0431 20.6121 66.818 20.38C66.5929 20.1479 66.4168 19.8729 66.3 19.5714C66.1833 19.2699 66.1284 18.948 66.1385 18.6248V2.41294C66.1385 1.77298 66.3927 1.15925 66.8452 0.706732C67.2977 0.254219 67.9115 0 68.5514 0C69.1914 0 69.8051 0.254219 70.2576 0.706732C70.7101 1.15925 70.9643 1.77298 70.9643 2.41294V18.6248C70.9745 18.948 70.9195 19.2699 70.8028 19.5714C70.686 19.8729 70.5099 20.1479 70.2848 20.38C70.0598 20.6121 69.7903 20.7966 69.4926 20.9226C69.1948 21.0485 68.8747 21.1133 68.5514 21.1132Z" fill="#00ADA8"/>
<path d="M75.8203 12.9243H68.5513C67.9114 12.9243 67.2976 12.67 66.8451 12.2175C66.3926 11.765 66.1384 11.1513 66.1384 10.5113C66.1384 9.87137 66.3926 9.25763 66.8451 8.80512C67.2976 8.35261 67.9114 8.09839 68.5513 8.09839H75.8203C76.4602 8.09839 77.074 8.35261 77.5265 8.80512C77.979 9.25763 78.2332 9.87137 78.2332 10.5113C78.2332 11.1513 77.979 11.765 77.5265 12.2175C77.074 12.67 76.4602 12.9243 75.8203 12.9243Z" fill="#CCCCFF"/>
<path d="M78.7912 4.84095H68.5513C67.9094 4.84095 67.2937 4.58594 66.8398 4.13201C66.3858 3.67808 66.1308 3.06243 66.1308 2.42048C66.1308 1.77853 66.3858 1.16287 66.8398 0.708941C67.2937 0.255014 67.9094 0 68.5513 0L78.7912 0C79.4311 0 80.0449 0.254219 80.4974 0.706732C80.9499 1.15925 81.2041 1.77299 81.2041 2.41294C81.2041 3.05289 80.9499 3.66663 80.4974 4.11914C80.0449 4.57165 79.4311 4.82587 78.7912 4.82587V4.84095Z" fill="#81D8D0"/>
<path d="M78.7912 20.9775H68.5513C67.9114 20.9775 67.2976 20.7233 66.8451 20.2707C66.3926 19.8182 66.1384 19.2045 66.1384 18.5645C66.1384 17.9246 66.3926 17.3109 66.8451 16.8583C67.2976 16.4058 67.9114 16.1516 68.5513 16.1516H78.7912C79.1081 16.1516 79.4218 16.214 79.7146 16.3353C80.0073 16.4565 80.2733 16.6343 80.4974 16.8583C80.7215 17.0824 80.8992 17.3484 81.0205 17.6412C81.1417 17.9339 81.2041 18.2477 81.2041 18.5645C81.2041 18.8814 81.1417 19.1952 81.0205 19.4879C80.8992 19.7807 80.7215 20.0467 80.4974 20.2707C80.2733 20.4948 80.0073 20.6725 79.7146 20.7938C79.4218 20.9151 79.1081 20.9775 78.7912 20.9775Z" fill="#70B0BE"/>
</g>
</g>
<defs>
<clipPath id="clip0_1036_2463">
<rect width="18.4439" height="21.0378" fill="white"/>
</clipPath>
<clipPath id="clip1_1036_2463">
<rect width="48.189" height="22" fill="white" transform="translate(13.2613)"/>
</clipPath>
<clipPath id="clip2_1036_2463">
<rect width="21.0378" height="21.0378" fill="white" transform="translate(20.8958)"/>
</clipPath>
<clipPath id="clip3_1036_2463">
<rect width="39.4125" height="22" fill="white" transform="translate(32.628)"/>
</clipPath>
<clipPath id="clip4_1036_2463">
<rect width="17.2676" height="21.0529" fill="white" transform="translate(46.0948)"/>
</clipPath>
<clipPath id="clip5_1036_2463">
<rect width="34.4035" height="22" fill="white" transform="translate(46.8157)"/>
</clipPath>
<clipPath id="clip6_1036_2463">
<rect width="15.0658" height="21.0378" fill="white" transform="translate(66.1384)"/>
</clipPath>
</defs>
</svg>
