<svg width="1600" height="1200" viewBox="0 0 1600 1200" fill="none" xmlns="http://www.w3.org/2000/svg">
<g clip-path="url(#clip0_1035_2056)">
<path d="M225.702 828.05C227.332 804.72 232.132 781.26 239.522 760.16C258.152 708 290.322 667.11 324.212 632.12C331.702 624.38 339.482 616.39 343.222 604.73C351.772 577.86 344.862 538.54 349.662 508.92C353.882 482.45 360.992 457.03 370.592 433.3C389.992 385.6 419.082 346.81 451.442 316.01C518.082 252.71 600.272 217.85 680.352 205.66C807.392 186.52 938.652 215.36 1054.25 290.32C1096.89 317.97 1133.47 361.62 1157.48 418.1C1183.59 479.44 1191.75 557.02 1172.74 623.21C1223.92 639.98 1276.44 660.56 1317.64 705.64C1352.78 744.17 1379.09 808.91 1374.29 871.69C1368.82 941.8 1321.38 979.29 1275.39 996.32C1085.56 1067.88 882.672 1061.59 687.462 1050.19C581.072 1043.9 474.682 1034.72 369.732 1010.48C321.912 999.34 269.582 981.12 242.402 926.34C228.192 897.77 223.392 862.65 225.702 828.05Z" fill="#DEEFF7"/>
<path d="M1099.91 358.73C1105.77 368.16 1108.92 379.32 1108.92 391.18C1108.92 425.5 1081.04 453.38 1046.72 453.38C1012.4 453.38 984.52 425.5 984.52 391.18C984.52 356.87 1012.4 328.99 1046.72 328.99C1063.88 328.99 1079.46 335.85 1090.76 347.29" fill="#ABEDD8"/>
<path d="M1099.91 358.73C1105.77 368.16 1108.92 379.32 1108.92 391.18C1108.92 425.5 1081.04 453.38 1046.72 453.38C1012.4 453.38 984.52 425.5 984.52 391.18C984.52 356.87 1012.4 328.99 1046.72 328.99C1063.88 328.99 1079.46 335.85 1090.76 347.29" stroke="#333333" stroke-width="2" stroke-linecap="round" stroke-linejoin="round"/>
<path d="M1108.06 329.84L1090.62 347.15L985.379 452.53" stroke="#333333" stroke-width="2" stroke-linecap="round" stroke-linejoin="round"/>
<path d="M513.479 893.18L265.879 893.51" stroke="#333333" stroke-width="2" stroke-linecap="round" stroke-linejoin="round"/>
<path d="M387.451 859.18L392.011 853.05C403.391 839.28 420.711 830.62 439.921 830.62C462.671 830.62 482.711 842.92 493.621 861.11C499.111 870.46 502.381 881.24 502.381 892.99H475.291H377.551C377.411 880.6 381.191 868.85 387.451 859.18Z" fill="#3D84A8" stroke="#333333" stroke-width="2" stroke-linecap="round" stroke-linejoin="round"/>
<path d="M229.041 835.73L236.691 825.37C256.031 802.15 285.151 787.46 317.711 787.46C356.311 787.46 390.081 808.19 408.551 839.14C417.901 854.94 423.331 873.27 423.331 892.99H377.591H212.231C212.181 871.94 218.451 852.27 229.041 835.73Z" fill="#48466D" stroke="#333333" stroke-width="2" stroke-linecap="round" stroke-linejoin="round"/>
<path d="M183.852 893.27H473.542" stroke="#333333" stroke-width="2" stroke-linecap="round" stroke-linejoin="round"/>
<path d="M490.281 893.27H682.931" stroke="#333333" stroke-width="2" stroke-linecap="round" stroke-linejoin="round"/>
<path d="M1136.11 938.74H1286.35C1298.87 938.74 1308.94 928.64 1308.94 916.06C1308.94 903.47 1298.87 893.37 1286.35 893.37" stroke="#333333" stroke-width="2" stroke-linecap="round" stroke-linejoin="round"/>
<path d="M951.16 970.4H1064.84C1082.2 970.4 1096.37 956.27 1096.37 938.74" stroke="#333333" stroke-width="2" stroke-linecap="round" stroke-linejoin="round"/>
<path d="M867.781 970.4H926.211" stroke="#333333" stroke-width="2" stroke-linecap="round" stroke-linejoin="round"/>
<path d="M1120.09 938.74H1022.12" stroke="#333333" stroke-width="2" stroke-linecap="round" stroke-linejoin="round"/>
<path d="M789.833 938.74H576.133" stroke="#333333" stroke-width="2" stroke-linecap="round" stroke-linejoin="round"/>
<path d="M557.442 938.74H530.742" stroke="#333333" stroke-width="2" stroke-linecap="round" stroke-linejoin="round"/>
<path d="M368.082 938.74H273.602" stroke="#333333" stroke-width="2" stroke-linecap="round" stroke-linejoin="round"/>
<path d="M385.543 938.74H494.803C503.743 938.74 510.823 945.96 510.823 954.83C510.823 963.8 503.633 970.91 494.803 970.91H439.663" stroke="#333333" stroke-width="2" stroke-linecap="round" stroke-linejoin="round"/>
<path d="M480.633 1003.19H425.493C416.553 1003.19 409.473 995.97 409.473 987.1C409.473 978.13 416.653 971.02 425.493 971.02" stroke="#333333" stroke-width="2" stroke-linecap="round" stroke-linejoin="round"/>
<path d="M496.34 1003.19H557.44" stroke="#333333" stroke-width="2" stroke-linecap="round" stroke-linejoin="round"/>
<path d="M576.133 1003.19H635.693" stroke="#333333" stroke-width="2" stroke-linecap="round" stroke-linejoin="round"/>
<path d="M699.98 893.27H1416.15" stroke="#333333" stroke-width="2" stroke-linecap="round" stroke-linejoin="round"/>
<path d="M476.719 249.42C473.859 249.42 470.999 249.59 468.049 250.13C481.639 256.75 490.939 270.61 490.939 286.62C490.939 308.97 472.789 327.13 450.429 327.13C442.119 327.13 434.339 324.62 427.719 320.15C435.139 339.82 454.369 353.86 476.539 353.86C505.339 353.86 528.769 330.44 528.769 301.64C528.769 272.85 505.519 249.42 476.719 249.42Z" fill="#78C7E0" stroke="#333333" stroke-width="2" stroke-linecap="round" stroke-linejoin="round"/>
<path d="M663.48 497.79C668.53 504.93 671.61 513.82 671.61 523.26C671.61 547.74 651.85 567.5 627.36 567.5C625.28 567.5 623.08 567.28 621 567.17C629.12 578.7 642.29 586.06 657.23 586.06C681.71 586.06 701.47 566.3 701.47 541.81C701.58 519.42 685 500.97 663.48 497.79Z" fill="#ABEDD8" stroke="#333333" stroke-width="2" stroke-linecap="round" stroke-linejoin="round"/>
<path d="M850.117 500.97C862.297 500.97 872.177 491.09 872.177 478.91C872.177 466.72 862.297 456.84 850.117 456.84C837.927 456.84 828.047 466.72 828.047 478.91C828.047 491.09 837.927 500.97 850.117 500.97Z" fill="#ABEDD8" stroke="#333333" stroke-width="2" stroke-linecap="round" stroke-linejoin="round"/>
<path d="M798.518 641.17C807.668 641.17 815.097 633.75 815.097 624.59C815.097 615.44 807.668 608.01 798.518 608.01C789.358 608.01 781.938 615.44 781.938 624.59C781.938 633.75 789.358 641.17 798.518 641.17Z" fill="#ABEDD8" stroke="#333333" stroke-width="2" stroke-linecap="round" stroke-linejoin="round"/>
<path d="M662.599 729.44C682.069 729.44 697.849 713.66 697.849 694.2C697.849 674.73 682.069 658.95 662.599 658.95C643.139 658.95 627.359 674.73 627.359 694.2C627.359 713.66 643.139 729.44 662.599 729.44Z" fill="#46CDCF" stroke="#333333" stroke-width="2" stroke-linecap="round" stroke-linejoin="round"/>
<path d="M935.86 789.16C968.78 789.16 995.47 762.47 995.47 729.55C995.47 696.62 968.78 669.93 935.86 669.93C902.93 669.93 876.25 696.62 876.25 729.55C876.25 762.47 902.93 789.16 935.86 789.16Z" fill="#46CDCF" stroke="#333333" stroke-width="2" stroke-linecap="round" stroke-linejoin="round"/>
<path d="M906.108 740.52H868.558C862.518 740.52 857.578 735.58 857.578 729.55C857.578 723.51 862.518 718.57 868.558 718.57H877.228" stroke="#333333" stroke-width="2" stroke-linecap="round" stroke-linejoin="round"/>
<path d="M994.26 718.46H1002.94C1008.97 718.46 1013.92 723.4 1013.92 729.44C1013.92 735.47 1008.97 740.41 1002.94 740.41H917.52" stroke="#333333" stroke-width="2" stroke-linecap="round" stroke-linejoin="round"/>
<path d="M682.59 453.66L698.61 469.69" stroke="#333333" stroke-width="2" stroke-linecap="round" stroke-linejoin="round"/>
<path d="M698.61 453.66L682.59 469.69" stroke="#333333" stroke-width="2" stroke-linecap="round" stroke-linejoin="round"/>
<path d="M741.318 410.84L706.078 446.3" stroke="#333333" stroke-width="2" stroke-linecap="round" stroke-linejoin="round"/>
<path d="M878.219 625.58L894.249 641.61" stroke="#333333" stroke-width="2" stroke-linecap="round" stroke-linejoin="round"/>
<path d="M894.249 625.58L878.219 641.61" stroke="#333333" stroke-width="2" stroke-linecap="round" stroke-linejoin="round"/>
<path d="M756.578 567.72L772.608 583.75" stroke="#333333" stroke-width="2" stroke-linecap="round" stroke-linejoin="round"/>
<path d="M772.608 567.72L756.578 583.75" stroke="#333333" stroke-width="2" stroke-linecap="round" stroke-linejoin="round"/>
<path d="M586.078 623.27L602.108 639.52" stroke="#333333" stroke-width="2" stroke-linecap="round" stroke-linejoin="round"/>
<path d="M602.108 623.27L586.078 639.52" stroke="#333333" stroke-width="2" stroke-linecap="round" stroke-linejoin="round"/>
<path d="M727.047 695.51L743.077 711.54" stroke="#333333" stroke-width="2" stroke-linecap="round" stroke-linejoin="round"/>
<path d="M743.077 695.51L727.047 711.54" stroke="#333333" stroke-width="2" stroke-linecap="round" stroke-linejoin="round"/>
<path d="M946.617 559.6L962.647 575.63" stroke="#333333" stroke-width="2" stroke-linecap="round" stroke-linejoin="round"/>
<path d="M962.647 559.6L946.617 575.63" stroke="#333333" stroke-width="2" stroke-linecap="round" stroke-linejoin="round"/>
<path d="M1005.68 516.78L970.219 552.02" stroke="#333333" stroke-width="2" stroke-linecap="round" stroke-linejoin="round"/>
<path d="M1136.74 174.54L1130.78 168.82L1158.68 164.52L1171.09 139.48L1183.73 164.52L1211.64 168.82L1191.12 188.61L1196.13 216.52L1171.09 203.16L1146.04 216.52L1150.81 188.61L1148.19 185.99L1146.76 184.32L1143.18 180.98" fill="#78C7E0"/>
<path d="M1136.74 174.54L1130.78 168.82L1158.68 164.52L1171.09 139.48L1183.73 164.52L1211.64 168.82L1191.12 188.61L1196.13 216.52L1171.09 203.16L1146.04 216.52L1150.81 188.61L1148.19 185.99L1146.76 184.32L1143.18 180.98" stroke="#333333" stroke-width="2" stroke-linecap="round" stroke-linejoin="round"/>
<path d="M1164.78 861.15L1160.51 855.42C1149.87 842.54 1133.68 834.44 1115.72 834.44C1094.44 834.44 1075.7 845.94 1065.49 862.95C1060.37 871.7 1057.31 881.78 1057.31 892.76H1082.64H1174.04C1174.17 881.17 1170.63 870.19 1164.78 861.15Z" fill="#3D84A8" stroke="#333333" stroke-width="2" stroke-linecap="round" stroke-linejoin="round"/>
<path d="M1312.91 839.22L1305.76 829.53C1287.67 807.82 1260.44 794.08 1229.99 794.08C1193.89 794.08 1162.32 813.46 1145.05 842.41C1136.31 857.18 1131.22 874.33 1131.22 892.76H1173.99H1328.63C1328.67 873.08 1322.81 854.68 1312.91 839.22Z" fill="#48466D" stroke="#333333" stroke-width="2" stroke-linecap="round" stroke-linejoin="round"/>
</g>
<defs>
<clipPath id="clip0_1035_2056">
<rect width="1600" height="1200" fill="white"/>
</clipPath>
</defs>
</svg>
